<?xml version="1.0" encoding="UTF-8"?>
<svg version="1.1" xmlns="http://www.w3.org/2000/svg" width="273" height="68">
<path d="M0 0 C4.29 0 8.58 0 13 0 C13 3.96 13 7.92 13 12 C17.29 12 21.58 12 26 12 C26.04898438 13.48113281 26.09796875 14.96226563 26.1484375 16.48828125 C26.22346843 18.4297065 26.29901612 20.37111182 26.375 22.3125 C26.4059375 23.28896484 26.436875 24.26542969 26.46875 25.27148438 C26.50742188 26.20927734 26.54609375 27.14707031 26.5859375 28.11328125 C26.6173584 28.97735596 26.6487793 29.84143066 26.68115234 30.73168945 C26.87188037 33.27742445 26.87188037 33.27742445 29 36 C31.5 36.41666667 31.5 36.41666667 34 36 C36.47969184 33.52030816 36.27950836 32.6694081 36.37890625 29.24609375 C36.41306641 28.30958984 36.44722656 27.37308594 36.48242188 26.40820312 C36.50884766 25.42787109 36.53527344 24.44753906 36.5625 23.4375 C36.62217902 21.49856662 36.68576609 19.55974822 36.75390625 17.62109375 C36.78979858 16.32836548 36.78979858 16.32836548 36.82641602 15.00952148 C37 13 37 13 38 12 C39.99958364 11.95919217 42.00045254 11.95745644 44 12 C44.33 10.68 44.66 9.36 45 8 C45.99 8.495 45.99 8.495 47 9 C46.34 14.94 45.68 20.88 45 27 C46.65 26.67 48.3 26.34 50 26 C50 29.3 50 32.6 50 36 C51.32 30.72 52.64 25.44 54 20 C52.68 19.67 51.36 19.34 50 19 C50.66 16.69 51.32 14.38 52 12 C55.70818297 11.91243695 59.41609763 11.85941985 63.125 11.8125 C64.17171875 11.78736328 65.2184375 11.76222656 66.296875 11.73632812 C72.16925835 11.68057765 75.77728226 12.11186116 81 15 C83.35794199 14.7258751 83.35794199 14.7258751 85.5625 13.6875 C92.31871918 11.34371356 99.73648271 10.52342955 106.60546875 12.90234375 C108.8125 14 108.8125 14 112 16 C112 15.34 112 14.68 112 14 C113.65 14 115.3 14 117 14 C117 11.03 117 8.06 117 5 C121.29 5 125.58 5 130 5 C130 7.97 130 10.94 130 14 C132.64 14 135.28 14 138 14 C138.33 15.65 138.66 17.3 139 19 C139.721875 18.21625 140.44375 17.4325 141.1875 16.625 C146.34806386 11.80847373 151.15587486 11.56645797 157.984375 11.67578125 C163.83572438 12.3048771 168.01187539 14.7694362 172 19 C172.33 16.69 172.66 14.38 173 12 C176.96 12 180.92 12 185 12 C185.33 12.99 185.66 13.98 186 15 C186.70125 14.505 187.4025 14.01 188.125 13.5 C191.37119719 11.8063319 193.39340156 11.74837685 197 12 C197 15.63 197 19.26 197 23 C194.98177083 23.42317708 192.96354167 23.84635417 190.9453125 24.26953125 C188.62953451 24.92308838 188.62953451 24.92308838 187 28 C186.63566627 30.12337771 186.63566627 30.12337771 186.5859375 32.44921875 C186.52792969 33.72055664 186.52792969 33.72055664 186.46875 35.01757812 C186.4378125 35.89865234 186.406875 36.77972656 186.375 37.6875 C186.31699219 39.02651367 186.31699219 39.02651367 186.2578125 40.39257812 C186.16360349 42.59471378 186.08071506 44.79732847 186 47 C181.71 47 177.42 47 173 47 C172.67 45.02 172.34 43.04 172 41 C171.13375 41.78375 170.2675 42.5675 169.375 43.375 C164.44315881 47.43313506 159.59078486 48.40628545 153.3125 48.2578125 C148.0625571 47.67251481 143.60638556 45.94932407 140 42 C139.67 43.65 139.34 45.3 139 47 C133.75282664 48.74905779 128.80844425 48.66979417 123.625 46.75 C119.91743612 44.27829075 118.40047056 42.20141168 117 38 C116.92970879 35.42734182 116.90629168 32.88358569 116.9375 30.3125 C116.94201172 29.61060547 116.94652344 28.90871094 116.95117188 28.18554688 C116.96293073 26.45699462 116.98086546 24.72848635 117 23 C116.34 23 115.68 23 115 23 C115 30.92 115 38.84 115 47 C110 47 105 47 100 47 C99.01 47.495 99.01 47.495 98 48 C92.18664715 48.38755686 89.18707709 47.82931477 84 45 C80.01607827 44.71613531 80.01607827 44.71613531 76.8125 46.5 C71.93419769 48.72408622 66.85833724 48.62222511 61.67285156 47.4934082 C59.04874261 47.00899788 56.68752526 46.88562569 54.0234375 46.90234375 C53.105625 46.90556641 52.1878125 46.90878906 51.2421875 46.91210938 C50.29601562 46.92048828 49.34984375 46.92886719 48.375 46.9375 C46.94414062 46.94426758 46.94414062 46.94426758 45.484375 46.95117188 C43.71922554 46.95987332 41.95408414 46.97063188 40.18896484 46.98413086 C38.45934726 46.99666991 36.72966304 47 35 47 C33.515 47.495 33.515 47.495 32 48 C26.41580827 48.36617651 22.77352202 48.2546741 18 45 C15.625 41.8125 15.625 41.8125 14 39 C13.67 41.64 13.34 44.28 13 47 C8 47 3 47 -2 47 C-2.99 47.33 -3.98 47.66 -5 48 C-11.44772564 48.54641743 -15.50844495 47.4099681 -21 44 C-21.33 43.67 -21.66 43.34 -22 43 C-22.33 44.32 -22.66 45.64 -23 47 C-35.21 47 -47.42 47 -60 47 C-60.04588161 40.93088256 -60.0857161 34.8623655 -60.10986328 28.79321289 C-60.11992835 26.728088 -60.13358154 24.66297737 -60.15087891 22.59790039 C-60.17510493 19.63163736 -60.18647797 16.66556256 -60.1953125 13.69921875 C-60.20563507 12.7741301 -60.21595764 11.84904144 -60.22659302 10.8959198 C-60.22674408 10.03525406 -60.22689514 9.17458832 -60.22705078 8.2878418 C-60.231492 7.53061325 -60.23593323 6.7733847 -60.24050903 5.99320984 C-60 4 -60 4 -58 1 C-58 1.66 -58 2.32 -58 3 C-56.72261963 2.75552124 -56.72261963 2.75552124 -55.41943359 2.50610352 C-51.98131372 1.99723428 -48.76232881 1.88641134 -45.2890625 1.90234375 C-44.04511719 1.90556641 -42.80117188 1.90878906 -41.51953125 1.91210938 C-40.23433594 1.92048828 -38.94914062 1.92886719 -37.625 1.9375 C-36.31660156 1.94201172 -35.00820313 1.94652344 -33.66015625 1.95117188 C-30.44005719 1.96292406 -27.2200523 1.97935457 -24 2 C-24 5.63 -24 9.26 -24 13 C-31.59 13 -39.18 13 -47 13 C-47 14.98 -47 16.96 -47 19 C-40.4 19 -33.8 19 -27 19 C-27 22.63 -27 26.26 -27 30 C-33.27 30 -39.54 30 -46 30 C-46 32.31 -46 34.62 -46 37 C-36.1 36.505 -36.1 36.505 -26 36 C-26.0825 34.164375 -26.165 32.32875 -26.25 30.4375 C-26.24311023 24.58808784 -25.56202849 21.62100993 -22 17 C-17.82217264 13.12786732 -14.70783302 11.85494611 -9.0625 11.8125 C-8.20785156 11.79832031 -7.35320312 11.78414062 -6.47265625 11.76953125 C-4 12 -4 12 0 14 C0 9.38 0 4.76 0 0 Z M-13 26 C-13.62058428 28.80412157 -13.6638629 31.20147451 -13 34 C-10.97071986 36.70732203 -10.97071986 36.70732203 -8 38 C-5.16737925 37.93255665 -3.61030297 37.35776381 -1.1875 35.9375 C0.74416957 32.7858286 0.63930976 29.53041057 0 26 C-1.96778661 23.08476058 -3.05722242 22.18855552 -6.5 21.5 C-9.94277758 22.18855552 -11.03221339 23.08476058 -13 26 Z M62 26 C61.37941572 28.80412157 61.3361371 31.20147451 62 34 C64.02928014 36.70732203 64.02928014 36.70732203 67 38 C70.10304831 37.9261179 71.464478 37.4616569 73.8125 35.4375 C74.204375 34.963125 74.59625 34.48875 75 34 C76.98 34.66 78.96 35.32 81 36 C81.309375 35.071875 81.61875 34.14375 81.9375 33.1875 C84.46372312 29.283337 86.16658294 28.73418457 90.50390625 27.5234375 C94.3326749 26.72053453 98.10011652 26.30951456 102 26 C101.34 24.68 100.68 23.36 100 22 C95.16123839 21.90512232 90.75101202 21.99220957 86 23 C85.34 22.67 84.68 22.34 84 22 C81.75583572 22.76721468 81.75583572 22.76721468 79.375 23.9375 C78.55773437 24.31777344 77.74046875 24.69804688 76.8984375 25.08984375 C75.95871094 25.54037109 75.95871094 25.54037109 75 26 C74.1646875 25.01 74.1646875 25.01 73.3125 24 C71.17827765 21.82197292 71.17827765 21.82197292 68.5 21.5 C65.05722242 22.18855552 63.96778661 23.08476058 62 26 Z M149 25 C148.48669242 28.06273524 148.38691077 30.95112384 149 34 C150.70805624 36.12902194 151.84077015 36.93295585 154.375 38 C157.21864195 38.25354166 157.21864195 38.25354166 159.8125 36 C162.25764418 33.12553579 162.25764418 33.12553579 162.5625 29.4375 C162.25065469 25.989692 162.25065469 25.989692 160.3125 23.5625 C156.17614341 20.76766447 152.22034796 21.06401916 149 25 Z M130 23 C129.94613371 25.12472576 129.90726929 27.24983652 129.875 29.375 C129.85179687 30.55835938 129.82859375 31.74171875 129.8046875 32.9609375 C129.67133771 36.11153817 129.67133771 36.11153817 132 38 C133.65 37.67 135.3 37.34 137 37 C137 32.38 137 27.76 137 23 C134.69 23 132.38 23 130 23 Z M93 35 C93.33 36.32 93.66 37.64 94 39 C96.41283832 39.86172797 97.69465714 40.08724082 100.1875 39.375 C102.25833333 38.08958333 102.25833333 38.08958333 102.75 35.375 C102.8325 34.59125 102.915 33.8075 103 33 C99.05272412 32.82057837 96.4019487 32.90649311 93 35 Z " fill="#010101" transform="translate(72,10)"/>
</svg>
